<svg width="192" height="192" viewBox="0 0 192 192" fill="none" xmlns="http://www.w3.org/2000/svg">
  <rect width="192" height="192" rx="44" fill="#E5484D"/>
  <path d="M56 136C56 120.536 68.536 108 84 108H108C123.464 108 136 120.536 136 136V140H56V136Z" fill="#FFF7ED"/>
  <path d="M96 48C73.909 48 56 65.909 56 88V102H70V88C70 73.6406 81.6406 62 96 62C110.359 62 122 73.6406 122 88V102H136V88C136 65.909 118.091 48 96 48Z" fill="#FFF7ED"/>
  <path d="M90 132C90 135.314 92.6863 138 96 138C99.3137 138 102 135.314 102 132V102H90V132Z" fill="#E5484D"/>
</svg>
